<svg xmlns="http://www.w3.org/2000/svg" width="11.68" height="20.032" viewBox="0 0 11.68 20.032">
  <defs>
    <style>
      .cls-1 {
        fill-rule: evenodd;
      }
    </style>
  </defs>
  <path id="fa-angle-left" class="cls-1" d="M1843.17,467.259a0.656,0.656,0,0,0,.2.462l1,1a0.629,0.629,0,0,0,.92,0l9.34-9.341a0.631,0.631,0,0,0,0-.922l-9.34-9.34a0.627,0.627,0,0,0-.92,0l-1,1a0.689,0.689,0,0,0-.2.461,0.7,0.7,0,0,0,.2.462l7.88,7.875-7.88,7.879A0.689,0.689,0,0,0,1843.17,467.259Z" transform="translate(-1843.16 -448.906)" fill="#999999" />
</svg>
