<svg xmlns="http://www.w3.org/2000/svg" width="19.937" height="17.5" viewBox="0 0 19.937 17.5">
  <defs>
    <style>
      .cls-1 {
        fill-rule: evenodd;
      }
    </style>
  </defs>
  <path fill="#e74c3c" id="google_plus" data-name="google plus" class="cls-1" d="M499.976,5452.03a3.731,3.731,0,0,1-1.482-1.77c0-.6.172-0.9,1.081-1.61a3.487,3.487,0,0,0,1.487-2.83c0-1.43-.527-3.15-1.712-3.15h1.786l1.261-.83h-5.633c-2.526,0-4.9,1.76-4.9,3.98a4.013,4.013,0,0,0,4.29,4.03c0.178,0,.352-0.05.523-0.06a2.214,2.214,0,0,0-.287,1.04,2.184,2.184,0,0,0,.767,1.55h-0.977c-3.127,0-5.975,1.69-5.975,3.77,0,2.04,3.08,3.19,6.208,3.19,3.565,0,5.406-1.59,5.406-3.64A3.819,3.819,0,0,0,499.976,5452.03Zm-3.008-2.84c-1.453-.04-2.831-1.63-3.081-3.55s0.722-3.38,2.172-3.33,2.831,1.58,3.082,3.49S498.418,5449.23,496.968,5449.19Zm-0.569,9.24c-2.161,0-3.723-.93-3.723-2.58,0-1.62,1.936-2.97,4.1-2.94a4.493,4.493,0,0,1,1.4.22c1.174,0.82,1.809,1.29,2.046,2.22a2.543,2.543,0,0,1,.069.58C500.291,5457.59,499.439,5458.43,496.4,5458.43Zm11.244-15.8v2.54h2.482v1.68h-2.482v2.5h-1.658v-2.5H503.5v-1.68h2.483v-2.54h1.658Z" transform="translate(-490.188 -5441.84)"/>
</svg>
