<svg xmlns="http://www.w3.org/2000/svg" width="20.219" height="18.57" viewBox="0 0 20.219 18.57">
  <defs>
    <style>
      .cls-1 {
        fill-rule: evenodd;
      }
    </style>
  </defs>
  <path fill="#999999" id="linkedin" class="cls-1" d="M526.715,5460.16h4.14v-12.49h-4.14v12.49Zm14.747-12.91a4.607,4.607,0,0,0-4.017,2.13v-1.71H533.33v12.49h4.141v-6.77c0-1.43.722-2.82,2.357-2.82a2.683,2.683,0,0,1,2.631,2.79v6.8H546.6v-7.08C546.6,5448.16,543.271,5447.25,541.462,5447.25Zm-12.659-5.66a2.211,2.211,0,1,0,2.434,2.2A2.33,2.33,0,0,0,528.8,5441.59Z" transform="translate(-526.375 -5441.59)"/>
</svg>
