<svg xmlns="http://www.w3.org/2000/svg" width="19.874" height="19.97" viewBox="0 0 19.874 19.97">
  <defs>
    <style>
      .cls-1 {
        fill-rule: evenodd;
      }
    </style>
  </defs>
  <path fill="#999999" id="rss" class="cls-1" d="M453.338,5455.18a2.89,2.89,0,1,0,2.9,2.89A2.9,2.9,0,0,0,453.338,5455.18Zm-2.747-7.49c-0.05,0-.1.01-0.153,0.01v3.69a0.792,0.792,0,0,1,.153-0.01,9.493,9.493,0,0,1,9.384,9.38c0,0.08-.01.15-0.012,0.23h3.7c0-.08.013-0.15,0.013-0.23A13.2,13.2,0,0,0,450.591,5447.69Zm0-6.67c-0.05,0-.1.01-0.153,0.01v3.72c0.051,0,.1-0.01.153-0.01a16.133,16.133,0,0,1,16.067,16.02c0,0.08,0,.15-0.006.23H470.3c0-.08.006-0.15,0.006-0.23A19.816,19.816,0,0,0,450.591,5441.02Z" transform="translate(-450.438 -5441.03)"/>
</svg>
