<svg xmlns="http://www.w3.org/2000/svg" width="19.907" height="17.47" viewBox="0 0 19.907 17.47">
  <defs>
    <style>
      .cls-1 {
        fill-rule: evenodd;
      }
    </style>
  </defs>
  <path fill="#e74c3c" id="vimeo" class="cls-1" d="M606.287,5447.48c1.75-1.37,4.241-3.98,6.182-3.98s2.415,1.84,2.682,3.89,1.027,6.51,2.054,6.51,3.367-3.95,3.234-5.48-1.826-1.3-2.758-.86c0.855-3.06,2.835-4.87,5.363-4.87s3.138,1.95,3.138,4.1c0,3.29-6.771,13.36-10.859,13.36-2.531,0-3.159-3.67-3.671-5.48s-1.521-6.58-2.7-6.88a4.567,4.567,0,0,0-1.75.93Z" transform="translate(-606.281 -5442.69)"/>
</svg>
